<?xml version="1.0" encoding="UTF-8"?>
<svg id="Layer_2" data-name="Layer 2" xmlns="http://www.w3.org/2000/svg" viewBox="0 0 339.37 71.31">
  <defs>
    <style>
      .cls-1 {
        fill: #acc435;
      }

      .cls-2 {
        fill: #222221;
      }
    </style>
  </defs>
  <g id="Layer_1-2" data-name="Layer 1">
    <g>
      <g>
        <rect class="cls-2" y="59.49" width="1.2" height="11.63"/>
        <polygon class="cls-2" points="18.59 69 18.49 69 11.82 59.49 10.65 59.49 10.65 71.11 11.86 71.11 11.86 61.62 11.95 61.62 18.61 71.11 19.77 71.11 19.77 59.49 18.59 59.49 18.59 69"/>
        <path class="cls-2" d="M34.12,66.48h3.25c0,.73-.15,1.36-.44,1.9-.3.56-.71,1-1.25,1.31-.53.31-1.15.46-1.84.46-.76,0-1.43-.19-2.03-.57-.6-.38-1.07-.93-1.41-1.65-.34-.72-.51-1.6-.51-2.62s.17-1.91.51-2.63.8-1.27,1.39-1.65c.58-.38,1.24-.57,1.97-.57.45,0,.87.07,1.25.2.38.13.71.32,1,.56.29.24.54.52.74.85.2.32.36.68.48,1.06h1.23c-.1-.53-.28-1.03-.55-1.49s-.6-.86-1.01-1.21c-.41-.34-.88-.61-1.41-.81-.53-.19-1.11-.29-1.73-.29-.74,0-1.42.14-2.04.42-.62.28-1.15.68-1.6,1.2-.45.52-.79,1.15-1.04,1.88-.24.73-.37,1.56-.37,2.48,0,1.22.21,2.27.64,3.17.43.89,1.02,1.58,1.79,2.07.77.49,1.66.73,2.68.73.91,0,1.72-.2,2.43-.59.71-.39,1.26-.95,1.66-1.66.4-.72.6-1.56.6-2.54v-1.07h-4.42v1.07Z"/>
        <polygon class="cls-2" points="48.77 65.83 54.06 65.83 54.06 64.76 48.77 64.76 48.77 60.56 54.42 60.56 54.42 59.49 47.56 59.49 47.56 71.11 54.52 71.11 54.52 70.04 48.77 70.04 48.77 65.83"/>
        <polygon class="cls-2" points="71.49 69 71.39 69 64.71 59.49 63.55 59.49 63.55 71.11 64.75 71.11 64.75 61.62 64.85 61.62 71.51 71.11 72.67 71.11 72.67 59.49 71.49 59.49 71.49 69"/>
        <rect class="cls-2" x="82.12" y="59.49" width="1.2" height="11.63"/>
        <polygon class="cls-2" points="93.98 65.83 99.27 65.83 99.27 64.76 93.98 64.76 93.98 60.56 99.63 60.56 99.63 59.49 92.77 59.49 92.77 71.11 99.73 71.11 99.73 70.04 93.98 70.04 93.98 65.83"/>
        <path class="cls-2" d="M114.73,66.03c.56-.3.99-.7,1.27-1.23.28-.52.42-1.12.42-1.81s-.14-1.29-.42-1.81c-.28-.53-.7-.94-1.27-1.25-.57-.3-1.28-.45-2.13-.45h-3.83v11.63h1.2v-4.64h2.64c.13,0,.26-.01.38-.02l2.51,4.66h1.39l-2.66-4.87c.18-.06.35-.13.5-.21ZM112.57,65.39h-2.61v-4.83h2.59c.62,0,1.12.1,1.52.3.4.2.69.48.88.85.19.37.28.8.28,1.29s-.09.92-.28,1.27c-.19.36-.48.63-.87.82-.39.19-.9.29-1.51.29Z"/>
        <rect class="cls-2" x="125.38" y="59.49" width="1.2" height="11.63"/>
        <path class="cls-2" d="M139.22,59.49l-4.25,11.63h1.26l1.21-3.42h4.81l1.22,3.42h1.25l-4.25-11.63h-1.26ZM137.83,66.62l1.98-5.57h.08l1.98,5.57h-4.04Z"/>
        <polygon class="cls-2" points="163.69 65.83 168.98 65.83 168.98 64.76 163.69 64.76 163.69 60.56 169.35 60.56 169.35 59.49 162.49 59.49 162.49 71.11 169.45 71.11 169.45 70.04 163.69 70.04 163.69 65.83"/>
        <path class="cls-2" d="M185.04,65.8c-.32-.24-.67-.44-1.04-.59-.37-.15-.73-.27-1.07-.37l-1.2-.33c-.26-.07-.52-.16-.79-.27-.27-.11-.51-.24-.74-.4-.23-.16-.41-.35-.55-.58-.14-.23-.21-.49-.21-.8,0-.4.11-.76.34-1.07.22-.31.54-.56.94-.74.4-.18.87-.27,1.4-.27.74,0,1.36.18,1.86.53.5.36.78.84.85,1.46h1.16c-.02-.59-.2-1.12-.53-1.58-.33-.46-.78-.83-1.35-1.09-.57-.27-1.22-.4-1.95-.4s-1.38.13-1.96.4c-.58.27-1.05.64-1.39,1.12-.34.48-.51,1.04-.51,1.67,0,.76.26,1.39.77,1.87.51.48,1.23.86,2.14,1.12l1.41.41c.45.13.86.28,1.21.45.36.17.64.38.85.64.21.26.32.58.32.97,0,.45-.13.84-.38,1.18-.26.33-.6.6-1.05.78-.44.19-.95.28-1.51.28-.5,0-.95-.08-1.37-.23-.41-.15-.75-.38-1.02-.69-.26-.3-.41-.68-.45-1.13h-1.24c.05.62.24,1.17.58,1.64.34.47.8.84,1.4,1.1.59.26,1.29.4,2.1.4.86,0,1.6-.15,2.21-.44.61-.29,1.08-.69,1.4-1.19.32-.5.49-1.06.49-1.69,0-.51-.1-.94-.3-1.3-.2-.36-.46-.66-.79-.9Z"/>
        <polygon class="cls-2" points="194.39 60.56 198.07 60.56 198.07 71.11 199.27 71.11 199.27 60.56 202.94 60.56 202.94 59.49 194.39 59.49 194.39 60.56"/>
        <path class="cls-2" d="M217.68,66.03c.56-.3.99-.7,1.27-1.23.28-.52.42-1.12.42-1.81s-.14-1.29-.42-1.81c-.28-.53-.7-.94-1.27-1.25-.57-.3-1.28-.45-2.13-.45h-3.83v11.63h1.2v-4.64h2.64c.13,0,.26-.01.38-.02l2.51,4.66h1.39l-2.66-4.87c.18-.06.35-.13.5-.21ZM215.52,65.39h-2.61v-4.83h2.59c.62,0,1.12.1,1.52.3.4.2.69.48.88.85.19.37.28.8.28,1.29s-.09.92-.28,1.27c-.19.36-.48.63-.87.82-.39.19-.9.29-1.51.29Z"/>
        <path class="cls-2" d="M236.03,67.09c0,.6-.13,1.13-.4,1.6-.27.47-.64.83-1.13,1.1-.49.27-1.06.4-1.73.4s-1.24-.13-1.72-.4c-.49-.27-.86-.63-1.13-1.1-.27-.47-.4-1-.4-1.6v-7.61h-1.2v7.7c0,.79.19,1.5.56,2.12.37.62.89,1.11,1.56,1.47.67.36,1.44.54,2.33.54s1.67-.18,2.34-.54c.67-.36,1.19-.85,1.56-1.47.37-.62.56-1.33.56-2.12v-7.7h-1.2v7.61Z"/>
        <path class="cls-2" d="M249.29,61.01c.59-.37,1.25-.56,1.97-.56.43,0,.83.06,1.21.19.38.13.72.31,1.02.54.3.24.56.52.77.84.21.33.35.69.43,1.09h1.2c-.1-.56-.28-1.07-.55-1.54-.27-.46-.6-.86-1.01-1.2-.41-.34-.87-.6-1.39-.78-.52-.18-1.08-.28-1.69-.28-.98,0-1.86.24-2.62.73-.76.49-1.36,1.18-1.8,2.07-.44.89-.65,1.95-.65,3.17s.22,2.27.65,3.17c.43.89,1.03,1.58,1.8,2.07.76.49,1.64.73,2.62.73.61,0,1.17-.09,1.69-.28.52-.18.98-.44,1.39-.78.41-.34.74-.74,1.01-1.2s.45-.97.55-1.53h-1.2c-.08.4-.22.76-.43,1.09-.21.33-.46.61-.77.85-.3.24-.64.42-1.02.54-.38.13-.78.19-1.21.19-.72,0-1.38-.19-1.97-.56-.59-.37-1.06-.92-1.41-1.64-.35-.72-.53-1.61-.53-2.65s.17-1.93.53-2.65c.35-.72.82-1.27,1.41-1.64Z"/>
        <polygon class="cls-2" points="264.1 60.56 267.77 60.56 267.77 71.11 268.97 71.11 268.97 60.56 272.65 60.56 272.65 59.49 264.1 59.49 264.1 60.56"/>
        <path class="cls-2" d="M289.12,67.09c0,.6-.13,1.13-.4,1.6-.27.47-.64.83-1.13,1.1-.49.27-1.06.4-1.73.4s-1.24-.13-1.72-.4c-.49-.27-.86-.63-1.13-1.1-.27-.47-.4-1-.4-1.6v-7.61h-1.2v7.7c0,.79.19,1.5.56,2.12.37.62.89,1.11,1.56,1.47.67.36,1.44.54,2.33.54s1.67-.18,2.34-.54c.67-.36,1.19-.85,1.56-1.47.37-.62.56-1.33.56-2.12v-7.7h-1.2v7.61Z"/>
        <path class="cls-2" d="M305.74,66.03c.56-.3.99-.7,1.27-1.23.28-.52.42-1.12.42-1.81s-.14-1.29-.42-1.81c-.28-.53-.7-.94-1.27-1.25-.57-.3-1.28-.45-2.13-.45h-3.83v11.63h1.2v-4.64h2.64c.13,0,.26-.01.38-.02l2.51,4.66h1.39l-2.66-4.87c.18-.06.35-.13.5-.21ZM303.58,65.39h-2.61v-4.83h2.59c.62,0,1.12.1,1.52.3.4.2.69.48.88.85.19.37.28.8.28,1.29s-.09.92-.28,1.27c-.19.36-.48.63-.87.82-.39.19-.9.29-1.51.29Z"/>
        <path class="cls-2" d="M319.58,59.49l-4.25,11.63h1.26l1.21-3.42h4.81l1.22,3.42h1.25l-4.25-11.63h-1.26ZM318.19,66.62l1.98-5.57h.08l1.98,5.57h-4.04Z"/>
        <polygon class="cls-2" points="333.88 70.04 333.88 59.49 332.68 59.49 332.68 71.11 339.37 71.11 339.37 70.04 333.88 70.04"/>
      </g>
      <g>
        <path class="cls-2" d="M322.14,33.35h-6.71l-8.57-14.93v27.24h-8.66V1.27h8.6l11.98,21.11h0s11.98-21.11,11.98-21.11h8.6v44.39h-8.66v-27.24s-8.57,14.93-8.57,14.93h0ZM61.58,45.64h8.66V1.25h-8.66v44.39ZM166.04,45.65h25.46v-8.26h-16.8V9.54h16.8V1.28h-25.46v44.37ZM240.17,45.64h8.66V1.25h-8.66v44.39ZM103.4,29.33L86.45,1.25h-8.62v44.39h8.66v-28.48l17.2,28.48h8.37V1.25h-8.66v28.07ZM223.89,29.33L206.94,1.25h-8.62v44.39h8.66v-28.48l17.2,28.48h8.37V1.25h-8.66v28.07ZM281.88,30.52c0,4.62-3.76,8.38-8.38,8.38s-8.38-3.76-8.38-8.38V1.25h-8.66v28.86c0,9.4,7.65,17.04,17.04,17.04s17.04-7.65,17.04-17.04V1.25h-8.66v29.27ZM150.24,36.21c-1.01.74-4.21,2.47-7.98,2.47-8.16,0-14.81-6.82-14.81-15.21s6.64-15.21,14.81-15.21c4.58,0,8.19,1.84,10.83,3.95l5.4-5.4v-.12l-.33-.37c-.23-.26-5.73-6.32-15.9-6.32-12.72,0-23.47,10.75-23.47,23.47s10.53,23.47,23.47,23.47c10.17,0,16.06-6.32,16.3-6.59l.34-.37v-15.77h-8.66v12ZM181.47,27.41h8.66v-8.66h-8.66v8.66Z"/>
        <g>
          <path class="cls-1" d="M44.5,45.65H.11V1.27h44.39v44.39ZM9,36.76h26.61V10.15H9v26.61Z"/>
          <rect class="cls-1" x="17.87" y="19.1" width="8.87" height="8.87"/>
        </g>
      </g>
    </g>
  </g>
</svg>