<svg width="317" height="68" viewBox="0 0 317 68" fill="none" xmlns="http://www.w3.org/2000/svg">
<path d="M20.96 31H20.16L14.464 23.096C13.664 23.256 12.768 23.32 11.84 23.32H4.896V31H4.256V8.6H11.84C17.344 8.6 20.64 11.32 20.64 15.96C20.64 19.576 18.624 22.04 15.136 22.936L20.96 31ZM4.896 22.712H11.904C17.152 22.712 20 20.248 20 15.96C20 11.672 17.152 9.208 11.904 9.208H4.896V22.712ZM27.8023 30.392H42.0743V31H27.1623V8.6H41.5943V9.208H27.8023V19.32H40.1543V19.928H27.8023V30.392ZM48.5373 31V8.6H57.0173C64.0893 8.6 68.8253 13.336 68.8253 19.8C68.8253 26.264 64.0893 31 57.0173 31H48.5373ZM49.1773 30.392H56.9533C63.8013 30.392 68.1853 25.912 68.1853 19.8C68.1853 13.688 63.8013 9.208 56.9533 9.208H49.1773V30.392ZM99.3588 31L96.4788 24.696H83.4868L80.6388 31H78.8788L89.1828 8.6H90.8148L101.119 31H99.3588ZM84.1268 23.32H95.8708L89.9828 10.392L84.1268 23.32ZM105.185 31V8.6H106.817V31H105.185ZM123.391 31.16C117.823 31.16 114.431 27.896 114.431 21.496V8.6H116.063V21.432C116.063 27.032 118.751 29.656 123.423 29.656C128.095 29.656 130.751 27.032 130.751 21.432V8.6H132.383V21.496C132.383 27.896 128.959 31.16 123.391 31.16Z" fill="#C2E4F8"/>
<path d="M9.422 55H8.288L6.048 51.85C5.796 51.878 5.544 51.892 5.264 51.892H2.632V55H1.596V45.2H5.264C7.756 45.2 9.268 46.46 9.268 48.56C9.268 50.1 8.456 51.178 7.028 51.64L9.422 55ZM5.236 51.01C7.196 51.01 8.232 50.1 8.232 48.56C8.232 46.992 7.196 46.096 5.236 46.096H2.632V51.01H5.236ZM17.9292 51.318C17.9292 51.402 17.9152 51.514 17.9152 51.626H11.7552C11.8672 53.166 13.0432 54.188 14.6532 54.188C15.5492 54.188 16.3472 53.866 16.9072 53.222L17.4672 53.866C16.8092 54.65 15.7872 55.07 14.6252 55.07C12.3292 55.07 10.7612 53.502 10.7612 51.318C10.7612 49.134 12.2872 47.58 14.3592 47.58C16.4312 47.58 17.9292 49.106 17.9292 51.318ZM14.3592 48.434C12.9312 48.434 11.8812 49.442 11.7552 50.884H16.9772C16.8512 49.442 15.8012 48.434 14.3592 48.434ZM25.6784 44.612H26.6724V55H25.7204V53.544C25.1184 54.538 24.0964 55.07 22.8784 55.07C20.7784 55.07 19.2104 53.544 19.2104 51.318C19.2104 49.092 20.7784 47.58 22.8784 47.58C24.0544 47.58 25.0624 48.084 25.6784 49.036V44.612ZM22.9624 54.188C24.5164 54.188 25.6924 53.04 25.6924 51.318C25.6924 49.596 24.5164 48.448 22.9624 48.448C21.3944 48.448 20.2184 49.596 20.2184 51.318C20.2184 53.04 21.3944 54.188 22.9624 54.188ZM38.8308 44.612H39.8248V55H38.8728V53.544C38.2708 54.538 37.2488 55.07 36.0308 55.07C33.9308 55.07 32.3628 53.544 32.3628 51.318C32.3628 49.092 33.9308 47.58 36.0308 47.58C37.2068 47.58 38.2148 48.084 38.8308 49.036V44.612ZM36.1148 54.188C37.6688 54.188 38.8448 53.04 38.8448 51.318C38.8448 49.596 37.6688 48.448 36.1148 48.448C34.5468 48.448 33.3708 49.596 33.3708 51.318C33.3708 53.04 34.5468 54.188 36.1148 54.188ZM49.019 51.318C49.019 51.402 49.005 51.514 49.005 51.626H42.845C42.957 53.166 44.133 54.188 45.743 54.188C46.639 54.188 47.437 53.866 47.997 53.222L48.557 53.866C47.899 54.65 46.877 55.07 45.715 55.07C43.419 55.07 41.851 53.502 41.851 51.318C41.851 49.134 43.377 47.58 45.449 47.58C47.521 47.58 49.019 49.106 49.019 51.318ZM45.449 48.434C44.021 48.434 42.971 49.442 42.845 50.884H48.067C47.941 49.442 46.891 48.434 45.449 48.434ZM61.8043 55L60.9363 52.9H56.3863L55.5183 55H53.1943L57.5623 45.2H59.8023L64.1843 55H61.8043ZM57.1143 51.178H60.2223L58.6683 47.426L57.1143 51.178ZM66.3771 49.078C66.8391 48.098 67.7771 47.58 69.1351 47.58V48.546C69.0511 48.546 68.9671 48.532 68.8971 48.532C67.3571 48.532 66.4191 49.512 66.4191 51.248V55H65.4251V47.636H66.3771V49.078ZM76.6345 47.636H77.5865V57.716H76.5925V53.614C75.9765 54.566 74.9685 55.07 73.7925 55.07C71.6925 55.07 70.1245 53.558 70.1245 51.318C70.1245 49.092 71.6925 47.58 73.7925 47.58C75.0105 47.58 76.0325 48.112 76.6345 49.092V47.636ZM73.8765 54.188C75.4305 54.188 76.6065 53.04 76.6065 51.318C76.6065 49.61 75.4305 48.448 73.8765 48.448C72.3085 48.448 71.1325 49.61 71.1325 51.318C71.1325 53.04 72.3085 54.188 73.8765 54.188ZM85.9968 47.636H86.9908V55H86.0387V53.656C85.5208 54.552 84.5688 55.07 83.3928 55.07C81.5168 55.07 80.2848 54.02 80.2848 51.906V47.636H81.2788V51.808C81.2788 53.376 82.0908 54.174 83.4908 54.174C85.0308 54.174 85.9968 53.18 85.9968 51.5V47.636ZM90.2787 46.026C89.8727 46.026 89.5507 45.704 89.5507 45.312C89.5507 44.934 89.8727 44.612 90.2787 44.612C90.6847 44.612 91.0067 44.92 91.0067 45.298C91.0067 45.704 90.6987 46.026 90.2787 46.026ZM89.7747 55V47.636H90.7687V55H89.7747ZM97.0624 53.838L97.4124 54.552C97.0204 54.902 96.4324 55.07 95.8584 55.07C94.4724 55.07 93.7024 54.286 93.7024 52.928V48.476H92.3864V47.636H93.7024V46.026H94.6964V47.636H96.9364V48.476H94.6964V52.872C94.6964 53.74 95.1444 54.216 95.9704 54.216C96.3764 54.216 96.7824 54.09 97.0624 53.838ZM105.388 51.318C105.388 51.402 105.374 51.514 105.374 51.626H99.2142C99.3262 53.166 100.502 54.188 102.112 54.188C103.008 54.188 103.806 53.866 104.366 53.222L104.926 53.866C104.268 54.65 103.246 55.07 102.084 55.07C99.7882 55.07 98.2202 53.502 98.2202 51.318C98.2202 49.134 99.7462 47.58 101.818 47.58C103.89 47.58 105.388 49.106 105.388 51.318ZM101.818 48.434C100.39 48.434 99.3402 49.442 99.2142 50.884H104.436C104.31 49.442 103.26 48.434 101.818 48.434ZM110.463 55.07C108.265 55.07 106.669 53.516 106.669 51.318C106.669 49.12 108.265 47.58 110.463 47.58C111.709 47.58 112.759 48.07 113.347 49.036L112.605 49.54C112.101 48.798 111.317 48.448 110.463 48.448C108.853 48.448 107.677 49.596 107.677 51.318C107.677 53.054 108.853 54.188 110.463 54.188C111.317 54.188 112.101 53.852 112.605 53.11L113.347 53.614C112.759 54.566 111.709 55.07 110.463 55.07ZM118.91 53.838L119.26 54.552C118.868 54.902 118.28 55.07 117.706 55.07C116.32 55.07 115.55 54.286 115.55 52.928V48.476H114.234V47.636H115.55V46.026H116.544V47.636H118.784V48.476H116.544V52.872C116.544 53.74 116.992 54.216 117.818 54.216C118.224 54.216 118.63 54.09 118.91 53.838ZM126.712 47.636H127.706V55H126.754V53.656C126.236 54.552 125.284 55.07 124.108 55.07C122.232 55.07 121 54.02 121 51.906V47.636H121.994V51.808C121.994 53.376 122.806 54.174 124.206 54.174C125.746 54.174 126.712 53.18 126.712 51.5V47.636ZM131.442 49.078C131.904 48.098 132.842 47.58 134.2 47.58V48.546C134.116 48.546 134.032 48.532 133.962 48.532C132.422 48.532 131.484 49.512 131.484 51.248V55H130.49V47.636H131.442V49.078ZM138.562 47.58C140.466 47.58 141.544 48.532 141.544 50.436V55H140.592V53.852C140.144 54.608 139.276 55.07 138.058 55.07C136.392 55.07 135.37 54.202 135.37 52.928C135.37 51.794 136.098 50.842 138.212 50.842H140.55V50.394C140.55 49.134 139.836 48.448 138.464 48.448C137.512 48.448 136.616 48.784 136.014 49.316L135.566 48.574C136.308 47.944 137.4 47.58 138.562 47.58ZM138.212 54.286C139.332 54.286 140.158 53.754 140.55 52.788V51.584H138.24C136.812 51.584 136.35 52.144 136.35 52.9C136.35 53.754 137.036 54.286 138.212 54.286ZM154.333 51.318C154.333 51.402 154.319 51.514 154.319 51.626H148.159C148.271 53.166 149.447 54.188 151.057 54.188C151.953 54.188 152.751 53.866 153.311 53.222L153.871 53.866C153.213 54.65 152.191 55.07 151.029 55.07C148.733 55.07 147.165 53.502 147.165 51.318C147.165 49.134 148.691 47.58 150.763 47.58C152.835 47.58 154.333 49.106 154.333 51.318ZM150.763 48.434C149.335 48.434 148.285 49.442 148.159 50.884H153.381C153.255 49.442 152.205 48.434 150.763 48.434ZM159.797 55V45.2H162.065V55H159.797ZM168.367 47.58C170.159 47.58 171.391 48.616 171.391 50.73V55H170.397V50.828C170.397 49.274 169.585 48.476 168.185 48.476C166.603 48.476 165.609 49.456 165.609 51.136V55H164.615V47.636H165.567V48.994C166.099 48.098 167.093 47.58 168.367 47.58ZM179.982 47.636H180.934V54.104C180.934 56.638 179.688 57.786 177.252 57.786C175.908 57.786 174.592 57.38 173.822 56.652L174.326 55.896C175.026 56.526 176.09 56.904 177.224 56.904C179.086 56.904 179.94 56.05 179.94 54.23V53.292C179.324 54.23 178.274 54.72 177.07 54.72C174.97 54.72 173.374 53.25 173.374 51.136C173.374 49.022 174.97 47.58 177.07 47.58C178.302 47.58 179.366 48.084 179.982 49.05V47.636ZM177.168 53.838C178.792 53.838 179.968 52.732 179.968 51.136C179.968 49.54 178.792 48.448 177.168 48.448C175.544 48.448 174.382 49.54 174.382 51.136C174.382 52.732 175.544 53.838 177.168 53.838ZM190.14 51.318C190.14 51.402 190.126 51.514 190.126 51.626H183.966C184.078 53.166 185.254 54.188 186.864 54.188C187.76 54.188 188.558 53.866 189.118 53.222L189.678 53.866C189.02 54.65 187.998 55.07 186.836 55.07C184.54 55.07 182.972 53.502 182.972 51.318C182.972 49.134 184.498 47.58 186.57 47.58C188.642 47.58 190.14 49.106 190.14 51.318ZM186.57 48.434C185.142 48.434 184.092 49.442 183.966 50.884H189.188C189.062 49.442 188.012 48.434 186.57 48.434ZM195.915 47.58C197.707 47.58 198.939 48.616 198.939 50.73V55H197.945V50.828C197.945 49.274 197.133 48.476 195.733 48.476C194.151 48.476 193.157 49.456 193.157 51.136V55H192.163V47.636H193.115V48.994C193.647 48.098 194.641 47.58 195.915 47.58ZM202.142 46.026C201.736 46.026 201.414 45.704 201.414 45.312C201.414 44.934 201.736 44.612 202.142 44.612C202.548 44.612 202.87 44.92 202.87 45.298C202.87 45.704 202.562 46.026 202.142 46.026ZM201.638 55V47.636H202.632V55H201.638ZM211.824 51.318C211.824 51.402 211.81 51.514 211.81 51.626H205.65C205.762 53.166 206.938 54.188 208.548 54.188C209.444 54.188 210.242 53.866 210.802 53.222L211.362 53.866C210.704 54.65 209.682 55.07 208.52 55.07C206.224 55.07 204.656 53.502 204.656 51.318C204.656 49.134 206.182 47.58 208.254 47.58C210.326 47.58 211.824 49.106 211.824 51.318ZM208.254 48.434C206.826 48.434 205.776 49.442 205.65 50.884H210.872C210.746 49.442 209.696 48.434 208.254 48.434ZM214.799 49.078C215.261 48.098 216.199 47.58 217.557 47.58V48.546C217.473 48.546 217.389 48.532 217.319 48.532C215.779 48.532 214.841 49.512 214.841 51.248V55H213.847V47.636H214.799V49.078ZM218.951 46.502L220.869 44.766H222.199L219.931 46.502H218.951ZM219.357 55V47.636H220.351V55H219.357ZM225.692 47.58C227.596 47.58 228.674 48.532 228.674 50.436V55H227.722V53.852C227.274 54.608 226.406 55.07 225.188 55.07C223.522 55.07 222.5 54.202 222.5 52.928C222.5 51.794 223.228 50.842 225.342 50.842H227.68V50.394C227.68 49.134 226.966 48.448 225.594 48.448C224.642 48.448 223.746 48.784 223.144 49.316L222.696 48.574C223.438 47.944 224.53 47.58 225.692 47.58ZM225.342 54.286C226.462 54.286 227.288 53.754 227.68 52.788V51.584H225.37C223.942 51.584 223.48 52.144 223.48 52.9C223.48 53.754 224.166 54.286 225.342 54.286ZM240.764 44.612H241.758V55H240.806V53.544C240.204 54.538 239.182 55.07 237.964 55.07C235.864 55.07 234.296 53.544 234.296 51.318C234.296 49.092 235.864 47.58 237.964 47.58C239.14 47.58 240.148 48.084 240.764 49.036V44.612ZM238.048 54.188C239.602 54.188 240.778 53.04 240.778 51.318C240.778 49.596 239.602 48.448 238.048 48.448C236.48 48.448 235.304 49.596 235.304 51.318C235.304 53.04 236.48 54.188 238.048 54.188ZM250.953 51.318C250.953 51.402 250.939 51.514 250.939 51.626H244.779C244.891 53.166 246.067 54.188 247.677 54.188C248.573 54.188 249.371 53.866 249.931 53.222L250.491 53.866C249.833 54.65 248.811 55.07 247.649 55.07C245.353 55.07 243.785 53.502 243.785 51.318C243.785 49.134 245.311 47.58 247.383 47.58C249.455 47.58 250.953 49.106 250.953 51.318ZM247.383 48.434C245.955 48.434 244.905 49.442 244.779 50.884H250.001C249.875 49.442 248.825 48.434 247.383 48.434ZM260.77 55.168C257.984 55.168 256.332 53.572 256.332 50.688V45.2H258.6V50.604C258.6 52.466 259.412 53.236 260.784 53.236C262.17 53.236 262.968 52.466 262.968 50.604V45.2H265.208V50.688C265.208 53.572 263.556 55.168 260.77 55.168ZM268.625 49.078C269.087 48.098 270.025 47.58 271.383 47.58V48.546C271.299 48.546 271.215 48.532 271.145 48.532C269.605 48.532 268.667 49.512 268.667 51.248V55H267.673V47.636H268.625V49.078ZM278.934 47.636H279.928V55H278.976V53.656C278.458 54.552 277.506 55.07 276.33 55.07C274.454 55.07 273.222 54.02 273.222 51.906V47.636H274.216V51.808C274.216 53.376 275.028 54.174 276.428 54.174C277.968 54.174 278.934 53.18 278.934 51.5V47.636ZM288.578 47.636H289.53V54.104C289.53 56.638 288.284 57.786 285.848 57.786C284.504 57.786 283.188 57.38 282.418 56.652L282.922 55.896C283.622 56.526 284.686 56.904 285.82 56.904C287.682 56.904 288.536 56.05 288.536 54.23V53.292C287.92 54.23 286.87 54.72 285.666 54.72C283.566 54.72 281.97 53.25 281.97 51.136C281.97 49.022 283.566 47.58 285.666 47.58C286.898 47.58 287.962 48.084 288.578 49.05V47.636ZM285.764 53.838C287.388 53.838 288.564 52.732 288.564 51.136C288.564 49.54 287.388 48.448 285.764 48.448C284.14 48.448 282.978 49.54 282.978 51.136C282.978 52.732 284.14 53.838 285.764 53.838ZM297.952 47.636H298.946V55H297.994V53.656C297.476 54.552 296.524 55.07 295.348 55.07C293.472 55.07 292.24 54.02 292.24 51.906V47.636H293.234V51.808C293.234 53.376 294.046 54.174 295.446 54.174C296.986 54.174 297.952 53.18 297.952 51.5V47.636ZM304.306 47.58C306.21 47.58 307.288 48.532 307.288 50.436V55H306.336V53.852C305.888 54.608 305.02 55.07 303.802 55.07C302.136 55.07 301.114 54.202 301.114 52.928C301.114 51.794 301.842 50.842 303.956 50.842H306.294V50.394C306.294 49.134 305.58 48.448 304.208 48.448C303.256 48.448 302.36 48.784 301.758 49.316L301.31 48.574C302.052 47.944 303.144 47.58 304.306 47.58ZM303.956 54.286C305.076 54.286 305.902 53.754 306.294 52.788V51.584H303.984C302.556 51.584 302.094 52.144 302.094 52.9C302.094 53.754 302.78 54.286 303.956 54.286ZM315.059 47.636H316.039L312.357 55.882C311.741 57.324 310.957 57.786 309.907 57.786C309.221 57.786 308.563 57.562 308.115 57.114L308.577 56.372C308.941 56.736 309.389 56.932 309.921 56.932C310.579 56.932 311.027 56.624 311.447 55.7L311.769 54.986L308.479 47.636H309.515L312.287 53.894L315.059 47.636Z" fill="#4EACE9"/>
</svg>
